<svg xmlns="http://www.w3.org/2000/svg" viewBox="0 0 8 8" shape-rendering="optimizeSpeed" width="64" height="64"><path fill="hsl(74 70% 36%)" d="M0,0H8V8H0z"/><path fill="hsl(15 84% 37%)" d="M2,0h1v1h-1zM5,0h1v1h-1zM3,0h1v1h-1zM4,0h1v1h-1zM2,2h1v1h-1zM5,2h1v1h-1zM1,3h1v1h-1zM6,3h1v1h-1zM0,4h1v1h-1zM7,4h1v1h-1zM2,4h1v1h-1zM5,4h1v1h-1zM0,5h1v1h-1zM7,5h1v1h-1zM0,6h1v1h-1zM7,6h1v1h-1zM0,7h1v1h-1zM7,7h1v1h-1zM1,7h1v1h-1zM6,7h1v1h-1zM3,7h1v1h-1zM4,7h1v1h-1z"/><path fill="hsl(180 82% 71%)" d="M0,1h1v1h-1zM7,1h1v1h-1zM2,3h1v1h-1zM5,3h1v1h-1zM3,4h1v1h-1zM4,4h1v1h-1z"/></svg>